<svg width="100" height="100" viewBox="0 0 100 100" fill="none" xmlns="http://www.w3.org/2000/svg">
<path d="M80.8994 43.9982V20" stroke="white" stroke-width="5"/>
<path d="M57.4004 19.498H81.4004" stroke="white" stroke-width="5"/>
<path d="M80.8994 80.3997V56.3999" stroke="white" stroke-width="5"/>
<path d="M57.4004 79.8984H81.4004" stroke="white" stroke-width="5"/>
<path d="M18.0996 81.8999V57.8999" stroke="white" stroke-width="5"/>
<path d="M17.4004 80.3984H41.4004" stroke="white" stroke-width="5"/>
<path d="M17.4004 19.5H41.4004" stroke="white" stroke-width="5"/>
<path d="M17.9014 20V44" stroke="white" stroke-width="5"/>
<mask id="mask0" mask-type="alpha" maskUnits="userSpaceOnUse" x="25" y="44" width="50" height="13">
<path d="M35.1137 47.6289V56.8001H34.0257V50.0609C34.0257 49.9713 34.0279 49.8753 34.0321 49.7729C34.0407 49.6705 34.0491 49.5659 34.0577 49.4593L30.9089 55.1937C30.8107 55.3857 30.6615 55.4817 30.4609 55.4817H30.2817C30.0811 55.4817 29.9319 55.3857 29.8337 55.1937L26.6209 49.4337C26.6465 49.6599 26.6593 49.8689 26.6593 50.0609V56.8001H25.5713V47.6289H26.4865C26.5975 47.6289 26.6827 47.6395 26.7425 47.6609C26.8023 47.6823 26.8599 47.7419 26.9153 47.8401L30.0833 53.4849C30.1345 53.5873 30.1835 53.6939 30.2305 53.8049C30.2817 53.9159 30.3287 54.0289 30.3713 54.1441C30.4139 54.0289 30.4587 53.9159 30.5057 53.8049C30.5527 53.6897 30.6039 53.5809 30.6593 53.4785L33.7697 47.8401C33.8209 47.7419 33.8763 47.6823 33.9361 47.6609C34.0001 47.6395 34.0875 47.6289 34.1985 47.6289H35.1137ZM42.3293 53.3953L40.8893 49.6641C40.8465 49.5531 40.8017 49.4251 40.7549 49.2801C40.7079 49.1307 40.6631 48.9729 40.6205 48.8065C40.5309 49.1521 40.4391 49.4401 40.3453 49.6705L38.9053 53.3953H42.3293ZM44.9149 56.8001H43.9549C43.8439 56.8001 43.7543 56.7723 43.6861 56.7169C43.6177 56.6615 43.5665 56.5911 43.5325 56.5057L42.6749 54.2913H38.5597L37.7021 56.5057C37.6765 56.5825 37.6273 56.6507 37.5549 56.7105C37.4823 56.7703 37.3927 56.8001 37.2861 56.8001H36.3261L39.9933 47.6289H41.2477L44.9149 56.8001ZM43.0397 44.9473L40.9533 46.7777C40.8893 46.8375 40.8273 46.8737 40.7677 46.8865C40.7079 46.8993 40.6353 46.9057 40.5501 46.9057H39.7309L41.2093 45.1521C41.2817 45.0583 41.3543 45.0007 41.4269 44.9793C41.5037 44.9579 41.6125 44.9473 41.7533 44.9473H43.0397ZM51.4229 48.6721H48.4533V56.8001H47.2181V48.6721H44.2421V47.6289H51.4229V48.6721ZM60.2143 47.6289V56.8001H58.9727V52.6273H54.0255V56.8001H52.7839V47.6289H54.0255V51.7185H58.9727V47.6289H60.2143ZM63.8005 56.8001H62.5589V47.6289H63.8005V56.8001ZM70.8375 49.0625C70.7991 49.1265 70.7565 49.1755 70.7095 49.2097C70.6669 49.2395 70.6135 49.2545 70.5495 49.2545C70.4769 49.2545 70.3917 49.2183 70.2935 49.1457C70.1953 49.0731 70.0717 48.9943 69.9223 48.9089C69.7773 48.8193 69.6001 48.7383 69.3911 48.6657C69.1863 48.5931 68.9367 48.5569 68.6423 48.5569C68.3649 48.5569 68.1197 48.5953 67.9063 48.6721C67.6973 48.7447 67.5201 48.8449 67.3751 48.9729C67.2343 49.1009 67.1277 49.2523 67.0551 49.4273C66.9825 49.5979 66.9463 49.7835 66.9463 49.9841C66.9463 50.2401 67.0081 50.4535 67.1319 50.6241C67.2599 50.7905 67.4263 50.9335 67.6311 51.0529C67.8401 51.1723 68.0749 51.2769 68.3351 51.3665C68.5997 51.4519 68.8685 51.5415 69.1415 51.6353C69.4189 51.7291 69.6877 51.8359 69.9479 51.9553C70.2125 52.0705 70.4471 52.2177 70.6519 52.3969C70.8609 52.5761 71.0273 52.7959 71.1511 53.0561C71.2791 53.3163 71.3431 53.6363 71.3431 54.0161C71.3431 54.4171 71.2749 54.7947 71.1383 55.1489C71.0017 55.4987 70.8013 55.8039 70.5367 56.0641C70.2765 56.3243 69.9543 56.5291 69.5703 56.6785C69.1905 56.8279 68.7575 56.9025 68.2711 56.9025C67.6737 56.9025 67.1319 56.7959 66.6455 56.5825C66.1591 56.3649 65.7431 56.0727 65.3975 55.7057L65.7559 55.1169C65.7901 55.0699 65.8305 55.0315 65.8775 55.0017C65.9287 54.9675 65.9841 54.9505 66.0439 54.9505C66.0993 54.9505 66.1613 54.9739 66.2295 55.0209C66.3021 55.0635 66.3831 55.1191 66.4727 55.1873C66.5623 55.2555 66.6647 55.3303 66.7799 55.4113C66.8951 55.4923 67.0253 55.5671 67.1703 55.6353C67.3197 55.7035 67.4881 55.7611 67.6759 55.8081C67.8637 55.8507 68.0749 55.8721 68.3095 55.8721C68.6039 55.8721 68.8663 55.8315 69.0967 55.7505C69.3271 55.6695 69.5213 55.5563 69.6791 55.4113C69.8413 55.2619 69.9649 55.0849 70.0503 54.8801C70.1357 54.6753 70.1783 54.4471 70.1783 54.1953C70.1783 53.9179 70.1143 53.6919 69.9863 53.5169C69.8625 53.3377 69.6983 53.1883 69.4935 53.0689C69.2887 52.9495 69.0541 52.8491 68.7895 52.7681C68.5249 52.6827 68.2561 52.5975 67.9831 52.5121C67.7101 52.4225 67.4413 52.3201 67.1767 52.2049C66.9121 52.0897 66.6775 51.9403 66.4727 51.7569C66.2679 51.5735 66.1015 51.3451 65.9735 51.0721C65.8497 50.7947 65.7879 50.4535 65.7879 50.0481C65.7879 49.7239 65.8497 49.4103 65.9735 49.1073C66.1015 48.8043 66.2849 48.5355 66.5239 48.3009C66.7671 48.0663 67.0637 47.8785 67.4135 47.7377C67.7677 47.5969 68.1729 47.5265 68.6295 47.5265C69.1415 47.5265 69.6065 47.6075 70.0247 47.7697C70.4471 47.9319 70.8183 48.1665 71.1383 48.4737L70.8375 49.0625ZM74.3379 56.8001H73.0963V47.6289H74.3379V56.8001Z" fill="white"/>
</mask>
<g mask="url(#mask0)">
<path d="M35.1137 47.6289V56.8001H34.0257V50.0609C34.0257 49.9713 34.0279 49.8753 34.0321 49.7729C34.0407 49.6705 34.0491 49.5659 34.0577 49.4593L30.9089 55.1937C30.8107 55.3857 30.6615 55.4817 30.4609 55.4817H30.2817C30.0811 55.4817 29.9319 55.3857 29.8337 55.1937L26.6209 49.4337C26.6465 49.6599 26.6593 49.8689 26.6593 50.0609V56.8001H25.5713V47.6289H26.4865C26.5975 47.6289 26.6827 47.6395 26.7425 47.6609C26.8023 47.6823 26.8599 47.7419 26.9153 47.8401L30.0833 53.4849C30.1345 53.5873 30.1835 53.6939 30.2305 53.8049C30.2817 53.9159 30.3287 54.0289 30.3713 54.1441C30.4139 54.0289 30.4587 53.9159 30.5057 53.8049C30.5527 53.6897 30.6039 53.5809 30.6593 53.4785L33.7697 47.8401C33.8209 47.7419 33.8763 47.6823 33.9361 47.6609C34.0001 47.6395 34.0875 47.6289 34.1985 47.6289H35.1137ZM42.3293 53.3953L40.8893 49.6641C40.8465 49.5531 40.8017 49.4251 40.7549 49.2801C40.7079 49.1307 40.6631 48.9729 40.6205 48.8065C40.5309 49.1521 40.4391 49.4401 40.3453 49.6705L38.9053 53.3953H42.3293ZM44.9149 56.8001H43.9549C43.8439 56.8001 43.7543 56.7723 43.6861 56.7169C43.6177 56.6615 43.5665 56.5911 43.5325 56.5057L42.6749 54.2913H38.5597L37.7021 56.5057C37.6765 56.5825 37.6273 56.6507 37.5549 56.7105C37.4823 56.7703 37.3927 56.8001 37.2861 56.8001H36.3261L39.9933 47.6289H41.2477L44.9149 56.8001ZM43.0397 44.9473L40.9533 46.7777C40.8893 46.8375 40.8273 46.8737 40.7677 46.8865C40.7079 46.8993 40.6353 46.9057 40.5501 46.9057H39.7309L41.2093 45.1521C41.2817 45.0583 41.3543 45.0007 41.4269 44.9793C41.5037 44.9579 41.6125 44.9473 41.7533 44.9473H43.0397ZM51.4229 48.6721H48.4533V56.8001H47.2181V48.6721H44.2421V47.6289H51.4229V48.6721ZM60.2143 47.6289V56.8001H58.9727V52.6273H54.0255V56.8001H52.7839V47.6289H54.0255V51.7185H58.9727V47.6289H60.2143ZM63.8005 56.8001H62.5589V47.6289H63.8005V56.8001ZM70.8375 49.0625C70.7991 49.1265 70.7565 49.1755 70.7095 49.2097C70.6669 49.2395 70.6135 49.2545 70.5495 49.2545C70.4769 49.2545 70.3917 49.2183 70.2935 49.1457C70.1953 49.0731 70.0717 48.9943 69.9223 48.9089C69.7773 48.8193 69.6001 48.7383 69.3911 48.6657C69.1863 48.5931 68.9367 48.5569 68.6423 48.5569C68.3649 48.5569 68.1197 48.5953 67.9063 48.6721C67.6973 48.7447 67.5201 48.8449 67.3751 48.9729C67.2343 49.1009 67.1277 49.2523 67.0551 49.4273C66.9825 49.5979 66.9463 49.7835 66.9463 49.9841C66.9463 50.2401 67.0081 50.4535 67.1319 50.6241C67.2599 50.7905 67.4263 50.9335 67.6311 51.0529C67.8401 51.1723 68.0749 51.2769 68.3351 51.3665C68.5997 51.4519 68.8685 51.5415 69.1415 51.6353C69.4189 51.7291 69.6877 51.8359 69.9479 51.9553C70.2125 52.0705 70.4471 52.2177 70.6519 52.3969C70.8609 52.5761 71.0273 52.7959 71.1511 53.0561C71.2791 53.3163 71.3431 53.6363 71.3431 54.0161C71.3431 54.4171 71.2749 54.7947 71.1383 55.1489C71.0017 55.4987 70.8013 55.8039 70.5367 56.0641C70.2765 56.3243 69.9543 56.5291 69.5703 56.6785C69.1905 56.8279 68.7575 56.9025 68.2711 56.9025C67.6737 56.9025 67.1319 56.7959 66.6455 56.5825C66.1591 56.3649 65.7431 56.0727 65.3975 55.7057L65.7559 55.1169C65.7901 55.0699 65.8305 55.0315 65.8775 55.0017C65.9287 54.9675 65.9841 54.9505 66.0439 54.9505C66.0993 54.9505 66.1613 54.9739 66.2295 55.0209C66.3021 55.0635 66.3831 55.1191 66.4727 55.1873C66.5623 55.2555 66.6647 55.3303 66.7799 55.4113C66.8951 55.4923 67.0253 55.5671 67.1703 55.6353C67.3197 55.7035 67.4881 55.7611 67.6759 55.8081C67.8637 55.8507 68.0749 55.8721 68.3095 55.8721C68.6039 55.8721 68.8663 55.8315 69.0967 55.7505C69.3271 55.6695 69.5213 55.5563 69.6791 55.4113C69.8413 55.2619 69.9649 55.0849 70.0503 54.8801C70.1357 54.6753 70.1783 54.4471 70.1783 54.1953C70.1783 53.9179 70.1143 53.6919 69.9863 53.5169C69.8625 53.3377 69.6983 53.1883 69.4935 53.0689C69.2887 52.9495 69.0541 52.8491 68.7895 52.7681C68.5249 52.6827 68.2561 52.5975 67.9831 52.5121C67.7101 52.4225 67.4413 52.3201 67.1767 52.2049C66.9121 52.0897 66.6775 51.9403 66.4727 51.7569C66.2679 51.5735 66.1015 51.3451 65.9735 51.0721C65.8497 50.7947 65.7879 50.4535 65.7879 50.0481C65.7879 49.7239 65.8497 49.4103 65.9735 49.1073C66.1015 48.8043 66.2849 48.5355 66.5239 48.3009C66.7671 48.0663 67.0637 47.8785 67.4135 47.7377C67.7677 47.5969 68.1729 47.5265 68.6295 47.5265C69.1415 47.5265 69.6065 47.6075 70.0247 47.7697C70.4471 47.9319 70.8183 48.1665 71.1383 48.4737L70.8375 49.0625ZM74.3379 56.8001H73.0963V47.6289H74.3379V56.8001Z" fill="white" stroke="white" stroke-width="2"/>
</g>
</svg>
