<svg width="500" height="500" viewBox="0 0 500 500" fill="none" xmlns="http://www.w3.org/2000/svg">
<path d="M500 0H0V500H500V0Z" fill="white"/>
<path d="M404.5 219.991V100" stroke="#274970" stroke-width="5"/>
<path d="M287 97.4912H407" stroke="#274970" stroke-width="5"/>
<path d="M404.5 401.999V282" stroke="#274970" stroke-width="5"/>
<path d="M287 399.491H407" stroke="#274970" stroke-width="5"/>
<path d="M90.5 409.5V289.5" stroke="#274970" stroke-width="5"/>
<path d="M87 401.991H207" stroke="#274970" stroke-width="5"/>
<path d="M87 97.5H207" stroke="#274970" stroke-width="5"/>
<path d="M89.5088 100V220" stroke="#274970" stroke-width="5"/>
<mask id="mask0" mask-type="alpha" maskUnits="userSpaceOnUse" x="127" y="224" width="245" height="61">
<path d="M175.568 238.144V284H170.128V250.304C170.128 249.856 170.139 249.376 170.16 248.864C170.203 248.352 170.245 247.829 170.288 247.296L154.544 275.968C154.053 276.928 153.307 277.408 152.304 277.408H151.408C150.405 277.408 149.659 276.928 149.168 275.968L133.104 247.168C133.232 248.299 133.296 249.344 133.296 250.304V284H127.856V238.144H132.432C132.987 238.144 133.413 238.197 133.712 238.304C134.011 238.411 134.299 238.709 134.576 239.2L150.416 267.424C150.672 267.936 150.917 268.469 151.152 269.024C151.408 269.579 151.643 270.144 151.856 270.72C152.069 270.144 152.293 269.579 152.528 269.024C152.763 268.448 153.019 267.904 153.296 267.392L168.848 239.2C169.104 238.709 169.381 238.411 169.68 238.304C170 238.197 170.437 238.144 170.992 238.144H175.568ZM211.646 266.976L204.446 248.32C204.232 247.765 204.008 247.125 203.774 246.4C203.539 245.653 203.315 244.864 203.102 244.032C202.654 245.76 202.195 247.2 201.726 248.352L194.526 266.976H211.646ZM224.574 284H219.774C219.219 284 218.771 283.861 218.43 283.584C218.088 283.307 217.832 282.955 217.662 282.528L213.374 271.456H192.798L188.51 282.528C188.382 282.912 188.136 283.253 187.774 283.552C187.411 283.851 186.963 284 186.43 284H181.63L199.966 238.144H206.238L224.574 284ZM215.198 224.736L204.766 233.888C204.446 234.187 204.136 234.368 203.838 234.432C203.539 234.496 203.176 234.528 202.75 234.528H198.654L206.046 225.76C206.408 225.291 206.771 225.003 207.134 224.896C207.518 224.789 208.062 224.736 208.766 224.736H215.198ZM257.114 243.36H242.266V284H236.09V243.36H221.21V238.144H257.114V243.36ZM301.071 238.144V284H294.863V263.136H270.127V284H263.919V238.144H270.127V258.592H294.863V238.144H301.071ZM319.002 284H312.794V238.144H319.002V284ZM354.187 245.312C353.995 245.632 353.782 245.877 353.547 246.048C353.334 246.197 353.067 246.272 352.747 246.272C352.384 246.272 351.958 246.091 351.467 245.728C350.976 245.365 350.358 244.971 349.611 244.544C348.886 244.096 348 243.691 346.955 243.328C345.931 242.965 344.683 242.784 343.211 242.784C341.824 242.784 340.598 242.976 339.531 243.36C338.486 243.723 337.6 244.224 336.875 244.864C336.171 245.504 335.638 246.261 335.275 247.136C334.912 247.989 334.731 248.917 334.731 249.92C334.731 251.2 335.04 252.267 335.659 253.12C336.299 253.952 337.131 254.667 338.155 255.264C339.2 255.861 340.374 256.384 341.675 256.832C342.998 257.259 344.342 257.707 345.707 258.176C347.094 258.645 348.438 259.179 349.739 259.776C351.062 260.352 352.235 261.088 353.259 261.984C354.304 262.88 355.136 263.979 355.755 265.28C356.395 266.581 356.715 268.181 356.715 270.08C356.715 272.085 356.374 273.973 355.691 275.744C355.008 277.493 354.006 279.019 352.683 280.32C351.382 281.621 349.771 282.645 347.851 283.392C345.952 284.139 343.787 284.512 341.355 284.512C338.368 284.512 335.659 283.979 333.227 282.912C330.795 281.824 328.715 280.363 326.987 278.528L328.779 275.584C328.95 275.349 329.152 275.157 329.387 275.008C329.643 274.837 329.92 274.752 330.219 274.752C330.496 274.752 330.806 274.869 331.147 275.104C331.51 275.317 331.915 275.595 332.363 275.936C332.811 276.277 333.323 276.651 333.899 277.056C334.475 277.461 335.126 277.835 335.851 278.176C336.598 278.517 337.44 278.805 338.379 279.04C339.318 279.253 340.374 279.36 341.547 279.36C343.019 279.36 344.331 279.157 345.483 278.752C346.635 278.347 347.606 277.781 348.395 277.056C349.206 276.309 349.824 275.424 350.251 274.4C350.678 273.376 350.891 272.235 350.891 270.976C350.891 269.589 350.571 268.459 349.931 267.584C349.312 266.688 348.491 265.941 347.467 265.344C346.443 264.747 345.27 264.245 343.947 263.84C342.624 263.413 341.28 262.987 339.915 262.56C338.55 262.112 337.206 261.6 335.883 261.024C334.56 260.448 333.387 259.701 332.363 258.784C331.339 257.867 330.507 256.725 329.867 255.36C329.248 253.973 328.939 252.267 328.939 250.24C328.939 248.619 329.248 247.051 329.867 245.536C330.507 244.021 331.424 242.677 332.619 241.504C333.835 240.331 335.318 239.392 337.067 238.688C338.838 237.984 340.864 237.632 343.147 237.632C345.707 237.632 348.032 238.037 350.123 238.848C352.235 239.659 354.091 240.832 355.691 242.368L354.187 245.312ZM371.689 284H365.481V238.144H371.689V284Z" fill="white"/>
</mask>
<g mask="url(#mask0)">
<path d="M175.568 238.144V284H170.128V250.304C170.128 249.856 170.139 249.376 170.16 248.864C170.203 248.352 170.245 247.829 170.288 247.296L154.544 275.968C154.053 276.928 153.307 277.408 152.304 277.408H151.408C150.405 277.408 149.659 276.928 149.168 275.968L133.104 247.168C133.232 248.299 133.296 249.344 133.296 250.304V284H127.856V238.144H132.432C132.987 238.144 133.413 238.197 133.712 238.304C134.011 238.411 134.299 238.709 134.576 239.2L150.416 267.424C150.672 267.936 150.917 268.469 151.152 269.024C151.408 269.579 151.643 270.144 151.856 270.72C152.069 270.144 152.293 269.579 152.528 269.024C152.763 268.448 153.019 267.904 153.296 267.392L168.848 239.2C169.104 238.709 169.381 238.411 169.68 238.304C170 238.197 170.437 238.144 170.992 238.144H175.568ZM211.646 266.976L204.446 248.32C204.232 247.765 204.008 247.125 203.774 246.4C203.539 245.653 203.315 244.864 203.102 244.032C202.654 245.76 202.195 247.2 201.726 248.352L194.526 266.976H211.646ZM224.574 284H219.774C219.219 284 218.771 283.861 218.43 283.584C218.088 283.307 217.832 282.955 217.662 282.528L213.374 271.456H192.798L188.51 282.528C188.382 282.912 188.136 283.253 187.774 283.552C187.411 283.851 186.963 284 186.43 284H181.63L199.966 238.144H206.238L224.574 284ZM215.198 224.736L204.766 233.888C204.446 234.187 204.136 234.368 203.838 234.432C203.539 234.496 203.176 234.528 202.75 234.528H198.654L206.046 225.76C206.408 225.291 206.771 225.003 207.134 224.896C207.518 224.789 208.062 224.736 208.766 224.736H215.198ZM257.114 243.36H242.266V284H236.09V243.36H221.21V238.144H257.114V243.36ZM301.071 238.144V284H294.863V263.136H270.127V284H263.919V238.144H270.127V258.592H294.863V238.144H301.071ZM319.002 284H312.794V238.144H319.002V284ZM354.187 245.312C353.995 245.632 353.782 245.877 353.547 246.048C353.334 246.197 353.067 246.272 352.747 246.272C352.384 246.272 351.958 246.091 351.467 245.728C350.976 245.365 350.358 244.971 349.611 244.544C348.886 244.096 348 243.691 346.955 243.328C345.931 242.965 344.683 242.784 343.211 242.784C341.824 242.784 340.598 242.976 339.531 243.36C338.486 243.723 337.6 244.224 336.875 244.864C336.171 245.504 335.638 246.261 335.275 247.136C334.912 247.989 334.731 248.917 334.731 249.92C334.731 251.2 335.04 252.267 335.659 253.12C336.299 253.952 337.131 254.667 338.155 255.264C339.2 255.861 340.374 256.384 341.675 256.832C342.998 257.259 344.342 257.707 345.707 258.176C347.094 258.645 348.438 259.179 349.739 259.776C351.062 260.352 352.235 261.088 353.259 261.984C354.304 262.88 355.136 263.979 355.755 265.28C356.395 266.581 356.715 268.181 356.715 270.08C356.715 272.085 356.374 273.973 355.691 275.744C355.008 277.493 354.006 279.019 352.683 280.32C351.382 281.621 349.771 282.645 347.851 283.392C345.952 284.139 343.787 284.512 341.355 284.512C338.368 284.512 335.659 283.979 333.227 282.912C330.795 281.824 328.715 280.363 326.987 278.528L328.779 275.584C328.95 275.349 329.152 275.157 329.387 275.008C329.643 274.837 329.92 274.752 330.219 274.752C330.496 274.752 330.806 274.869 331.147 275.104C331.51 275.317 331.915 275.595 332.363 275.936C332.811 276.277 333.323 276.651 333.899 277.056C334.475 277.461 335.126 277.835 335.851 278.176C336.598 278.517 337.44 278.805 338.379 279.04C339.318 279.253 340.374 279.36 341.547 279.36C343.019 279.36 344.331 279.157 345.483 278.752C346.635 278.347 347.606 277.781 348.395 277.056C349.206 276.309 349.824 275.424 350.251 274.4C350.678 273.376 350.891 272.235 350.891 270.976C350.891 269.589 350.571 268.459 349.931 267.584C349.312 266.688 348.491 265.941 347.467 265.344C346.443 264.747 345.27 264.245 343.947 263.84C342.624 263.413 341.28 262.987 339.915 262.56C338.55 262.112 337.206 261.6 335.883 261.024C334.56 260.448 333.387 259.701 332.363 258.784C331.339 257.867 330.507 256.725 329.867 255.36C329.248 253.973 328.939 252.267 328.939 250.24C328.939 248.619 329.248 247.051 329.867 245.536C330.507 244.021 331.424 242.677 332.619 241.504C333.835 240.331 335.318 239.392 337.067 238.688C338.838 237.984 340.864 237.632 343.147 237.632C345.707 237.632 348.032 238.037 350.123 238.848C352.235 239.659 354.091 240.832 355.691 242.368L354.187 245.312ZM371.689 284H365.481V238.144H371.689V284Z" fill="#274970" stroke="#274970" stroke-width="2"/>
</g>
</svg>
