<svg width="100" height="100" viewBox="0 0 100 100" fill="none" xmlns="http://www.w3.org/2000/svg">
<path d="M80.9004 43.9982V20" stroke="white" stroke-width="5"/>
<path d="M57.4004 19.498H81.4004" stroke="white" stroke-width="5"/>
<path d="M80.9004 80.3997V56.3999" stroke="white" stroke-width="5"/>
<path d="M57.4004 79.8984H81.4004" stroke="white" stroke-width="5"/>
<path d="M18.0996 81.8999V57.8999" stroke="white" stroke-width="5"/>
<path d="M17.4004 80.3984H41.4004" stroke="white" stroke-width="5"/>
<path d="M17.4004 19.5H41.4004" stroke="white" stroke-width="5"/>
<path d="M17.9023 20V44" stroke="white" stroke-width="5"/>
<mask id="mask0" mask-type="alpha" maskUnits="userSpaceOnUse" x="25" y="44" width="50" height="13">
<path d="M35.1127 47.6289V56.8001H34.0247V50.0609C34.0247 49.9713 34.0269 49.8753 34.0311 49.7729C34.0397 49.6705 34.0481 49.5659 34.0567 49.4593L30.9079 55.1937C30.8097 55.3857 30.6605 55.4817 30.4599 55.4817H30.2807C30.0801 55.4817 29.9309 55.3857 29.8327 55.1937L26.6199 49.4337C26.6455 49.6599 26.6583 49.8689 26.6583 50.0609V56.8001H25.5703V47.6289H26.4855C26.5965 47.6289 26.6817 47.6395 26.7415 47.6609C26.8013 47.6823 26.8589 47.7419 26.9143 47.8401L30.0823 53.4849C30.1335 53.5873 30.1825 53.6939 30.2295 53.8049C30.2807 53.9159 30.3277 54.0289 30.3703 54.1441C30.4129 54.0289 30.4577 53.9159 30.5047 53.8049C30.5517 53.6897 30.6029 53.5809 30.6583 53.4785L33.7687 47.8401C33.8199 47.7419 33.8753 47.6823 33.9351 47.6609C33.9991 47.6395 34.0865 47.6289 34.1975 47.6289H35.1127ZM42.3283 53.3953L40.8883 49.6641C40.8455 49.5531 40.8007 49.4251 40.7539 49.2801C40.7069 49.1307 40.6621 48.9729 40.6195 48.8065C40.5299 49.1521 40.4381 49.4401 40.3443 49.6705L38.9043 53.3953H42.3283ZM44.9139 56.8001H43.9539C43.8429 56.8001 43.7533 56.7723 43.6851 56.7169C43.6167 56.6615 43.5655 56.5911 43.5315 56.5057L42.6739 54.2913H38.5587L37.7011 56.5057C37.6755 56.5825 37.6263 56.6507 37.5539 56.7105C37.4813 56.7703 37.3917 56.8001 37.2851 56.8001H36.3251L39.9923 47.6289H41.2467L44.9139 56.8001ZM43.0387 44.9473L40.9523 46.7777C40.8883 46.8375 40.8263 46.8737 40.7667 46.8865C40.7069 46.8993 40.6343 46.9057 40.5491 46.9057H39.7299L41.2083 45.1521C41.2807 45.0583 41.3533 45.0007 41.4259 44.9793C41.5027 44.9579 41.6115 44.9473 41.7523 44.9473H43.0387ZM51.4219 48.6721H48.4523V56.8001H47.2171V48.6721H44.2411V47.6289H51.4219V48.6721ZM60.2133 47.6289V56.8001H58.9717V52.6273H54.0245V56.8001H52.7829V47.6289H54.0245V51.7185H58.9717V47.6289H60.2133ZM63.7995 56.8001H62.5579V47.6289H63.7995V56.8001ZM70.8365 49.0625C70.7981 49.1265 70.7555 49.1755 70.7085 49.2097C70.6659 49.2395 70.6125 49.2545 70.5485 49.2545C70.4759 49.2545 70.3907 49.2183 70.2925 49.1457C70.1943 49.0731 70.0707 48.9943 69.9213 48.9089C69.7763 48.8193 69.5991 48.7383 69.3901 48.6657C69.1853 48.5931 68.9357 48.5569 68.6413 48.5569C68.3639 48.5569 68.1187 48.5953 67.9053 48.6721C67.6963 48.7447 67.5191 48.8449 67.3741 48.9729C67.2333 49.1009 67.1267 49.2523 67.0541 49.4273C66.9815 49.5979 66.9453 49.7835 66.9453 49.9841C66.9453 50.2401 67.0071 50.4535 67.1309 50.6241C67.2589 50.7905 67.4253 50.9335 67.6301 51.0529C67.8391 51.1723 68.0739 51.2769 68.3341 51.3665C68.5987 51.4519 68.8675 51.5415 69.1405 51.6353C69.4179 51.7291 69.6867 51.8359 69.9469 51.9553C70.2115 52.0705 70.4461 52.2177 70.6509 52.3969C70.8599 52.5761 71.0263 52.7959 71.1501 53.0561C71.2781 53.3163 71.3421 53.6363 71.3421 54.0161C71.3421 54.4171 71.2739 54.7947 71.1373 55.1489C71.0007 55.4987 70.8003 55.8039 70.5357 56.0641C70.2755 56.3243 69.9533 56.5291 69.5693 56.6785C69.1895 56.8279 68.7565 56.9025 68.2701 56.9025C67.6727 56.9025 67.1309 56.7959 66.6445 56.5825C66.1581 56.3649 65.7421 56.0727 65.3965 55.7057L65.7549 55.1169C65.7891 55.0699 65.8295 55.0315 65.8765 55.0017C65.9277 54.9675 65.9831 54.9505 66.0429 54.9505C66.0983 54.9505 66.1603 54.9739 66.2285 55.0209C66.3011 55.0635 66.3821 55.1191 66.4717 55.1873C66.5613 55.2555 66.6637 55.3303 66.7789 55.4113C66.8941 55.4923 67.0243 55.5671 67.1693 55.6353C67.3187 55.7035 67.4871 55.7611 67.6749 55.8081C67.8627 55.8507 68.0739 55.8721 68.3085 55.8721C68.6029 55.8721 68.8653 55.8315 69.0957 55.7505C69.3261 55.6695 69.5203 55.5563 69.6781 55.4113C69.8403 55.2619 69.9639 55.0849 70.0493 54.8801C70.1347 54.6753 70.1773 54.4471 70.1773 54.1953C70.1773 53.9179 70.1133 53.6919 69.9853 53.5169C69.8615 53.3377 69.6973 53.1883 69.4925 53.0689C69.2877 52.9495 69.0531 52.8491 68.7885 52.7681C68.5239 52.6827 68.2551 52.5975 67.9821 52.5121C67.7091 52.4225 67.4403 52.3201 67.1757 52.2049C66.9111 52.0897 66.6765 51.9403 66.4717 51.7569C66.2669 51.5735 66.1005 51.3451 65.9725 51.0721C65.8487 50.7947 65.7869 50.4535 65.7869 50.0481C65.7869 49.7239 65.8487 49.4103 65.9725 49.1073C66.1005 48.8043 66.2839 48.5355 66.5229 48.3009C66.7661 48.0663 67.0627 47.8785 67.4125 47.7377C67.7667 47.5969 68.1719 47.5265 68.6285 47.5265C69.1405 47.5265 69.6055 47.6075 70.0237 47.7697C70.4461 47.9319 70.8173 48.1665 71.1373 48.4737L70.8365 49.0625ZM74.3369 56.8001H73.0953V47.6289H74.3369V56.8001Z" fill="white"/>
</mask>
<g mask="url(#mask0)">
<path d="M35.1127 47.6289V56.8001H34.0247V50.0609C34.0247 49.9713 34.0269 49.8753 34.0311 49.7729C34.0397 49.6705 34.0481 49.5659 34.0567 49.4593L30.9079 55.1937C30.8097 55.3857 30.6605 55.4817 30.4599 55.4817H30.2807C30.0801 55.4817 29.9309 55.3857 29.8327 55.1937L26.6199 49.4337C26.6455 49.6599 26.6583 49.8689 26.6583 50.0609V56.8001H25.5703V47.6289H26.4855C26.5965 47.6289 26.6817 47.6395 26.7415 47.6609C26.8013 47.6823 26.8589 47.7419 26.9143 47.8401L30.0823 53.4849C30.1335 53.5873 30.1825 53.6939 30.2295 53.8049C30.2807 53.9159 30.3277 54.0289 30.3703 54.1441C30.4129 54.0289 30.4577 53.9159 30.5047 53.8049C30.5517 53.6897 30.6029 53.5809 30.6583 53.4785L33.7687 47.8401C33.8199 47.7419 33.8753 47.6823 33.9351 47.6609C33.9991 47.6395 34.0865 47.6289 34.1975 47.6289H35.1127ZM42.3283 53.3953L40.8883 49.6641C40.8455 49.5531 40.8007 49.4251 40.7539 49.2801C40.7069 49.1307 40.6621 48.9729 40.6195 48.8065C40.5299 49.1521 40.4381 49.4401 40.3443 49.6705L38.9043 53.3953H42.3283ZM44.9139 56.8001H43.9539C43.8429 56.8001 43.7533 56.7723 43.6851 56.7169C43.6167 56.6615 43.5655 56.5911 43.5315 56.5057L42.6739 54.2913H38.5587L37.7011 56.5057C37.6755 56.5825 37.6263 56.6507 37.5539 56.7105C37.4813 56.7703 37.3917 56.8001 37.2851 56.8001H36.3251L39.9923 47.6289H41.2467L44.9139 56.8001ZM43.0387 44.9473L40.9523 46.7777C40.8883 46.8375 40.8263 46.8737 40.7667 46.8865C40.7069 46.8993 40.6343 46.9057 40.5491 46.9057H39.7299L41.2083 45.1521C41.2807 45.0583 41.3533 45.0007 41.4259 44.9793C41.5027 44.9579 41.6115 44.9473 41.7523 44.9473H43.0387ZM51.4219 48.6721H48.4523V56.8001H47.2171V48.6721H44.2411V47.6289H51.4219V48.6721ZM60.2133 47.6289V56.8001H58.9717V52.6273H54.0245V56.8001H52.7829V47.6289H54.0245V51.7185H58.9717V47.6289H60.2133ZM63.7995 56.8001H62.5579V47.6289H63.7995V56.8001ZM70.8365 49.0625C70.7981 49.1265 70.7555 49.1755 70.7085 49.2097C70.6659 49.2395 70.6125 49.2545 70.5485 49.2545C70.4759 49.2545 70.3907 49.2183 70.2925 49.1457C70.1943 49.0731 70.0707 48.9943 69.9213 48.9089C69.7763 48.8193 69.5991 48.7383 69.3901 48.6657C69.1853 48.5931 68.9357 48.5569 68.6413 48.5569C68.3639 48.5569 68.1187 48.5953 67.9053 48.6721C67.6963 48.7447 67.5191 48.8449 67.3741 48.9729C67.2333 49.1009 67.1267 49.2523 67.0541 49.4273C66.9815 49.5979 66.9453 49.7835 66.9453 49.9841C66.9453 50.2401 67.0071 50.4535 67.1309 50.6241C67.2589 50.7905 67.4253 50.9335 67.6301 51.0529C67.8391 51.1723 68.0739 51.2769 68.3341 51.3665C68.5987 51.4519 68.8675 51.5415 69.1405 51.6353C69.4179 51.7291 69.6867 51.8359 69.9469 51.9553C70.2115 52.0705 70.4461 52.2177 70.6509 52.3969C70.8599 52.5761 71.0263 52.7959 71.1501 53.0561C71.2781 53.3163 71.3421 53.6363 71.3421 54.0161C71.3421 54.4171 71.2739 54.7947 71.1373 55.1489C71.0007 55.4987 70.8003 55.8039 70.5357 56.0641C70.2755 56.3243 69.9533 56.5291 69.5693 56.6785C69.1895 56.8279 68.7565 56.9025 68.2701 56.9025C67.6727 56.9025 67.1309 56.7959 66.6445 56.5825C66.1581 56.3649 65.7421 56.0727 65.3965 55.7057L65.7549 55.1169C65.7891 55.0699 65.8295 55.0315 65.8765 55.0017C65.9277 54.9675 65.9831 54.9505 66.0429 54.9505C66.0983 54.9505 66.1603 54.9739 66.2285 55.0209C66.3011 55.0635 66.3821 55.1191 66.4717 55.1873C66.5613 55.2555 66.6637 55.3303 66.7789 55.4113C66.8941 55.4923 67.0243 55.5671 67.1693 55.6353C67.3187 55.7035 67.4871 55.7611 67.6749 55.8081C67.8627 55.8507 68.0739 55.8721 68.3085 55.8721C68.6029 55.8721 68.8653 55.8315 69.0957 55.7505C69.3261 55.6695 69.5203 55.5563 69.6781 55.4113C69.8403 55.2619 69.9639 55.0849 70.0493 54.8801C70.1347 54.6753 70.1773 54.4471 70.1773 54.1953C70.1773 53.9179 70.1133 53.6919 69.9853 53.5169C69.8615 53.3377 69.6973 53.1883 69.4925 53.0689C69.2877 52.9495 69.0531 52.8491 68.7885 52.7681C68.5239 52.6827 68.2551 52.5975 67.9821 52.5121C67.7091 52.4225 67.4403 52.3201 67.1757 52.2049C66.9111 52.0897 66.6765 51.9403 66.4717 51.7569C66.2669 51.5735 66.1005 51.3451 65.9725 51.0721C65.8487 50.7947 65.7869 50.4535 65.7869 50.0481C65.7869 49.7239 65.8487 49.4103 65.9725 49.1073C66.1005 48.8043 66.2839 48.5355 66.5229 48.3009C66.7661 48.0663 67.0627 47.8785 67.4125 47.7377C67.7667 47.5969 68.1719 47.5265 68.6285 47.5265C69.1405 47.5265 69.6055 47.6075 70.0237 47.7697C70.4461 47.9319 70.8173 48.1665 71.1373 48.4737L70.8365 49.0625ZM74.3369 56.8001H73.0953V47.6289H74.3369V56.8001Z" fill="white" stroke="white" stroke-width="2"/>
</g>
</svg>
